<?xml version="1.0" encoding="UTF-8" standalone="no"?>
<!-- Generator: Adobe Illustrator 19.2.1, SVG Export Plug-In . SVG Version: 6.00 Build 0)  -->

<svg
   xmlns:dc="http://purl.org/dc/elements/1.1/"
   xmlns:cc="http://creativecommons.org/ns#"
   xmlns:rdf="http://www.w3.org/1999/02/22-rdf-syntax-ns#"
   xmlns:svg="http://www.w3.org/2000/svg"
   xmlns="http://www.w3.org/2000/svg"
   xmlns:sodipodi="http://sodipodi.sourceforge.net/DTD/sodipodi-0.dtd"
   xmlns:inkscape="http://www.inkscape.org/namespaces/inkscape"
   version="1.1"
   id="Layer_1"
   inkscape:version="0.91 r13725"
   sodipodi:docname="wallpaper.svg"
   x="0px"
   y="0px"
   viewBox="0 0 595.3 841.9"
   style="enable-background:new 0 0 595.3 841.9;"
   xml:space="preserve"><metadata
     id="metadata4175"><rdf:RDF><cc:Work
         rdf:about=""><dc:format>image/svg+xml</dc:format><dc:type
           rdf:resource="http://purl.org/dc/dcmitype/StillImage" /><dc:title /></cc:Work></rdf:RDF></metadata><defs
     id="defs4173" /><style
     type="text/css"
     id="style4137">
	.st0{fill:#FFFDFF;}
	.st1{fill:#FFFFFF;}
	.st2{fill:#939291;}
	.st3{fill:#D5D4D4;}
	.st4{fill:#181A28;}
	.st5{fill:#1A3152;}
	.st6{fill:#3E73C2;}
	.st7{fill:#FAF9F3;}
	.st8{fill:#0A7EAE;}
	.st9{fill:#181D2A;}
	.st10{fill:#FF5D3F;}
	.st11{font-family:'Aventura-Bold';}
	.st12{font-size:60.8243px;}
	.st13{fill:#BFBDBC;}
	.st14{font-family:'NexaBold';}
	.st15{font-size:66.1544px;}
</style><rect
     x="-194.85312"
     y="-162.09099"
     class="st0"
     width="993"
     height="514.68237"
     id="rect4139"
     style="fill:#383c59;fill-opacity:1"
     inkscape:export-filename="/home/fuego/test.png"
     inkscape:export-xdpi="300"
     inkscape:export-ydpi="300" /><sodipodi:namedview
     bordercolor="#666666"
     borderopacity="1"
     gridtolerance="10"
     guidetolerance="10"
     id="namedview4338"
     inkscape:current-layer="Layer_1"
     inkscape:cx="289.94696"
     inkscape:cy="732.49287"
     inkscape:pageopacity="0"
     inkscape:pageshadow="2"
     inkscape:window-height="988"
     inkscape:window-maximized="1"
     inkscape:window-width="1868"
     inkscape:window-x="25"
     inkscape:window-y="50"
     inkscape:zoom="1.2424278"
     objecttolerance="10"
     pagecolor="#ffffff"
     showgrid="false"
     showguides="true" /><g
     id="g4258"
     transform="matrix(0.57892942,0,0,0.57892942,208.39526,8.887103)"><polygon
       style="fill:#ffffff"
       transform="translate(66.83616,-2.1502841)"
       id="polygon4141"
       points="22.3,148.5 62,121.9 115.7,80.6 185.3,43.4 196.3,85 199.3,103.9 170.7,142.2 181.3,179.9 137.7,236.8 17.3,165.2 "
       class="st1" /><g
       transform="matrix(0.93401151,0,0,0.93401151,56.912498,-32.899558)"
       id="g4262"><path
         style="fill:#bfbdbc"
         d="m 221.2,114.5 c 3.8,-1.9 4.2,0.5 4.9,2.8 6.4,19.2 0.2,35.2 -12.1,49.8 -3.3,3.9 -6.4,8.2 -9.8,12 -7.5,8.5 -7.3,18 -3.8,28 2.6,7.3 7,13.6 10.6,20.2 1.9,3.4 1.8,3.9 -2,4.1 -3.5,0.2 -3.6,1.7 -2.6,4.5 4.8,14.2 2.4,27.9 -3.6,41.2 -7.6,5.6 -7.2,15.9 -13.1,22.7 -3.2,3.6 -6.2,6.4 -11.2,7.2 -9.2,1.4 -18.3,2.5 -27.5,0 -2.4,-0.6 -3.5,0.2 -4.1,2.5 -0.5,2 0.3,4.1 -0.9,6 -2.4,-0.2 -3.5,-2 -5,-3.4 C 121.9,295 102.5,278.2 79.4,266.7 64.3,259.2 48.3,254.4 31.2,254.3 c -5.6,0 -11.1,0.7 -16.2,3.4 -1.2,0.6 -2.5,0.9 -4.6,1.6 2.4,-15.2 11,-25.9 21,-36.3 -5.5,-2.5 -9.7,-7.5 -16.8,-4.5 5.6,-18.5 11.9,-35.1 29.3,-44.8 8.2,-4.6 16.9,-8.2 25.3,-12.5 1.3,-0.7 2.8,-1.1 3.6,-2.5 4.6,-7.4 11.3,-12.5 18.3,-17.2 9.6,-6.3 17.6,-14.6 26.9,-21.2 8.5,-6 17.6,-10.3 28.3,-10.2 3,0 5.4,-1.2 7.5,-3.4 9.4,-9.8 19.1,-19.5 30.4,-27.2 3.7,-2.5 7.4,-5 12.1,-5.4 9.2,-0.7 14.1,2.4 20.2,15.2 3.2,6.7 4.1,14 4.5,21.4 0.2,1 0.2,2 0.2,3.8 l 0,0 z m -4.6,7.3 c -0.1,-0.6 -0.2,-1 -0.2,-1.4 0.1,-1.4 0.3,-2.7 0.4,-4.1 0.4,-12 -1.1,-23.4 -8.8,-33.2 -3.7,-4.7 -8,-5.9 -13.8,-4 -4,1.3 -7.2,3.8 -10.5,6.2 -10.5,7.8 -19.7,16.9 -28.4,26.5 -1.2,1.3 -2.2,2.6 -4.4,2.5 -13.9,-0.8 -25.4,5 -35.7,13.8 -8.5,7.3 -17.2,14.2 -26.5,20.6 -3.2,2.2 -6.6,4.4 -8.5,7.6 -4.1,7 -10.7,10 -17.6,13 -3.4,1.5 -6.6,3.2 -10,4.7 -17.1,7.8 -27.4,21 -31.5,39.3 1.8,0.7 3.8,-0.5 5.8,-0.2 -0.3,0.8 -1,1.9 -0.9,2 3.6,3.4 8.6,4.1 13.1,6.3 -9.4,9 -18,18.1 -22.8,30.9 8.1,-2.3 15.7,-2.6 23.3,-1.6 21.2,2.6 40.6,10.1 58.3,22 12.5,8.4 24.2,17.7 35.7,27.4 3,2.5 5.9,5 9.3,7.9 0.3,-3 0.5,-5.2 0.7,-7.7 11.1,5 22.2,4.6 33.5,2.7 4.4,-0.7 7.1,-2.8 9.4,-6.3 5.3,-8.2 8.6,-17.3 10.9,-26.7 0.2,-0.8 0.4,-1.6 1.1,-2 0.9,0.5 0.9,2.1 2.6,2 2.3,-6.7 3.7,-13.6 3.4,-20.7 -0.3,-7.1 -2.3,-13.8 -6.2,-19.7 2.3,-1.8 5.1,-0.7 7.6,-2.2 -0.7,-1.3 -1.3,-2.5 -2,-3.6 -2.9,-5.1 -5.7,-10.2 -7.8,-15.7 -4.4,-11.7 -3.3,-22.4 5.1,-32.1 1.7,-2 3.3,-4 5,-6 5.8,-7.1 11.7,-14 15.2,-22.6 3.8,-9.2 4,-18.4 0.5,-27.9 -1.8,0.7 -3.5,1.5 -5.3,2.3 l 0,0 z"
         class="st13"
         inkscape:export-ydpi="90"
         inkscape:export-xdpi="90"
         inkscape:export-filename="/home/fuego/test.png"
         inkscape:connector-curvature="0"
         id="path4264" /><path
         style="fill:#181d2a"
         d="m 216.6,121.8 c 1.8,-0.8 3.5,-1.6 5.4,-2.5 3.5,9.5 3.3,18.7 -0.5,27.9 -3.5,8.6 -9.4,15.6 -15.2,22.6 -1.6,2 -3.3,4 -5,6 -8.4,9.6 -9.5,20.4 -5.1,32.1 2.1,5.5 4.8,10.7 7.8,15.7 0.7,1.1 1.3,2.3 2,3.6 -2.4,1.5 -5.2,0.5 -7.6,2.2 3.9,5.9 5.9,12.6 6.2,19.7 0.3,7.1 -1,14 -3.4,20.7 -1.7,0.1 -1.7,-1.5 -2.6,-2 -0.7,0.5 -0.9,1.3 -1.1,2 -2.3,9.4 -5.6,18.5 -10.9,26.7 -2.3,3.5 -5,5.6 -9.4,6.3 -11.4,1.9 -22.5,2.2 -33.5,-2.7 -0.2,2.5 -0.4,4.7 -0.7,7.7 -3.4,-2.9 -6.3,-5.4 -9.3,-7.9 -11.4,-9.7 -23.2,-19 -35.7,-27.4 -17.7,-11.9 -37.1,-19.3 -58.3,-22 -7.6,-0.9 -15.2,-0.6 -23.3,1.6 4.9,-12.7 13.5,-21.9 22.8,-30.9 -4.6,-2.2 -9.5,-2.9 -13.1,-6.3 -0.2,-0.2 0.5,-1.3 0.9,-2 -2,-0.4 -4,0.9 -5.8,0.2 4.1,-18.2 14.4,-31.5 31.5,-39.3 3.3,-1.5 6.6,-3.3 10,-4.7 6.9,-3 13.6,-6 17.6,-13 1.9,-3.3 5.3,-5.5 8.5,-7.6 9.2,-6.3 18,-13.3 26.5,-20.6 10.3,-8.8 21.7,-14.5 35.7,-13.8 2.2,0.1 3.2,-1.2 4.4,-2.5 8.7,-9.6 18,-18.7 28.4,-26.5 3.3,-2.4 6.5,-5 10.5,-6.2 5.8,-1.9 10.1,-0.7 13.8,4 7.6,9.8 9.2,21.3 8.8,33.2 0,1.4 -0.3,2.7 -0.4,4.1 -0.1,0.6 0,1 0.1,1.6 l 0,0 z M 80.8,167.7 73,171.3 c -8.9,3.8 -17.8,7.5 -25.9,12.8 -8.4,5.5 -14.4,12.8 -17.4,22.7 3,0.6 5.9,1.3 8.8,1.9 -0.3,1.1 -2.2,0.6 -2.1,2.2 13.8,7.5 28.7,7.2 44.7,4.9 -3,2.8 -5.5,4 -8,5.2 -6.5,2.3 -13.2,3.3 -20.1,2.5 -1.1,-0.1 -2.4,-0.3 -3.2,0.2 -7,4.5 -11.7,10.9 -16,18.5 8.3,-0.4 15.7,0.5 23.1,2.2 23.4,5.4 43.2,17.6 61.4,32.8 6,5 11.7,10.4 17.7,15.7 0.9,-3 -0.7,-5.6 -0.3,-8.6 1.6,1.1 3,2 4.3,2.8 10.6,6.6 21.8,10.4 34.5,7.6 1.3,-0.3 2.7,-0.5 3.5,-1.8 3.4,-6.3 7.3,-12.5 9.2,-19.5 3.7,-7.9 4,-16.4 3.9,-25 2,0.7 2.1,3 4.1,3.3 -0.1,-5.2 -1.3,-10 -3,-14.7 -1.8,-4.8 -4.8,-9 -7.9,-13.6 l 9.7,0 c 2.5,0 2,-1.1 0.9,-2.4 -1.9,-3.9 -4.1,-7.7 -5.8,-11.7 -4.3,-10.5 -4.4,-20.9 1.4,-31 2.5,-4.3 5.6,-8 8.7,-11.8 5,-6 10.4,-11.5 14.3,-18.3 3.2,-5.5 4.9,-11.4 3.6,-19 -10.3,7.5 -21.2,12.1 -32.8,15.5 -0.6,-5.9 1.6,-11.2 3.7,-16.5 2.6,-4.3 5.7,-8.2 9.5,-11.6 3.7,-3.3 7.2,-6.8 8.9,-12.3 3,8.2 2.1,15.8 1.1,23.5 1.3,0 1.9,-0.7 2.1,-1.5 2.4,-9.1 2.7,-18.2 -0.9,-27.2 -0.3,-0.6 -0.5,-1.4 -1.6,-1.4 -2.6,0 -5.3,-0.3 -7.9,-0.4 -1.8,-0.1 -3.5,-0.1 -4.7,-2 2.6,-1.3 5.4,-2.4 5.7,-5.8 0.1,-0.8 0.1,-1.7 -1,-1.9 -0.8,-0.1 -2.2,0.1 -2.1,0.8 0.9,6.8 -4.9,4.6 -7.9,6 -2.1,1 -3.1,-0.2 -3.5,-2.5 -4.8,3.2 -9,6.4 -12.5,10.3 -5.1,4.3 -9.4,9.5 -14,14.5 1.4,1.1 2.6,2.1 4.3,3.5 -9.3,0.4 -18.1,-0.8 -26.5,2.3 -5.1,1 -9.3,3.8 -13.2,6.9 -10.5,8.2 -20.4,17.1 -31.6,24.5 -0.2,0.1 -0.2,0.5 -0.3,0.9 l 5.3,0 c -1.8,2.5 -3.8,4.1 -5.6,5.8 -1.9,1.8 -4.4,2.6 -6,4.7 l 0,0 c -1.7,0.8 -3.5,1.2 -4.8,2.4 l 0,0 z"
         class="st9"
         sodipodi:nodetypes="cccccccccscccccccccccccccccccccccccccccccccccccccccccccccccccscccccccccccccsccccccccccccccccccc"
         inkscape:export-ydpi="90"
         inkscape:export-xdpi="90"
         inkscape:export-filename="/home/fuego/test.png"
         inkscape:connector-curvature="0"
         id="path4266" /><path
         style="fill:#3e73c2"
         d="m 195,221.1 c 1.1,1.3 1.6,2.4 -0.9,2.4 -3,0 -6,0 -9.7,0 3.1,4.6 6.1,8.7 7.9,13.6 1.7,4.7 2.9,9.5 3,14.7 -2,-0.3 -2,-2.6 -4.1,-3.3 0.1,8.7 -0.2,17.2 -3.9,25 -1.9,0.7 -2.3,2.6 -3.4,3.9 -3.1,4 -6.7,7.2 -11.3,10.1 -0.4,-4.9 0.3,-9.3 -1.3,-13.5 -0.7,-1.8 -1.4,-3.6 -4.1,-2.4 -6.8,3 -13.9,2.2 -20.8,0.7 -17.4,-3.8 -32.4,-12.2 -45,-25 -3.6,-3.7 -6.2,-8 -9.6,-12.6 -0.6,2.5 -0.6,4.6 -2.1,6.6 -5.3,-6 -8.2,-12.9 -9.4,-20.6 -2.5,0.5 -4.7,2.2 -7.1,0.4 2.5,-1.2 5.1,-2.4 8,-5.2 -16.1,2.3 -30.9,2.5 -44.7,-4.9 -0.1,-1.5 1.8,-1.1 2.1,-2.2 3.6,-0.5 7.3,0.8 10.8,-0.8 5.9,0.8 11.9,1.5 17.9,0.6 0.1,2 -1.9,2.4 -1.7,4 6.1,0.1 11.8,-1.7 17.1,-4.8 1.1,4.3 1.8,8.3 4.3,12.3 1,-1.2 1.7,-2 2.5,-2.7 0.9,-0.8 1.5,-2 3.1,-2.1 5.8,15.4 16.5,26.7 30.7,34.7 14,8 29.1,12.1 45.3,13.5 -0.6,-2.6 -2.5,-4 -2.7,-6.3 4.9,1.6 6.7,4.4 10.9,16.8 12.9,-10.2 12,-41.7 2.3,-47.4 -0.2,7.7 -2.2,14.7 -7.9,20.3 -5.5,-4.9 -9.6,-10.5 -13.6,-16.7 -2.4,4.4 -1.2,8.5 -0.9,12.7 -7.6,0.4 -14.1,-2 -20.3,-5.6 -6.3,-3.6 -11.2,-8.8 -16.9,-14.8 0,2.5 0,3.8 0,5.2 0,1.4 0.6,2.9 -0.2,4.8 -13.2,-12.2 -21.2,-26.6 -22.7,-44.6 -2.6,0.9 -4.4,2.3 -6.1,3.8 -1.7,1.5 -3.3,3 -4.9,4.4 0,-6.2 2.2,-10.3 11.9,-21.9 -3.7,-0.7 -6.4,1.9 -9.7,2.4 1.3,-2.6 3.6,-4.4 5.4,-6.6 2.9,-3.6 5.7,-7.2 7,-12.2 -5.3,2.4 -9.4,6.2 -14.8,7.3 1.6,-2.1 4.1,-3 6,-4.7 1.8,-1.7 3.9,-3.3 5.6,-5.8 -2.1,0 -3.7,0 -5.3,0 0.2,-0.5 0.2,-0.8 0.3,-0.9 11.1,-7.4 21,-16.4 31.6,-24.5 4,-3.1 8.1,-5.9 13.2,-6.9 -0.8,0.7 -1.6,1.4 -2.5,2.1 -9.5,7.1 -12.9,16.9 -13.3,28.7 2.5,-1 4.3,-2.5 7,-2.4 0.2,0.6 0.5,1.2 0.6,1.9 0.8,8.2 5,14.8 9.9,21.1 1.6,2.1 3.1,2.4 5.4,0.9 5.6,-3.6 10.7,-7.9 15.2,-12.9 0.8,-0.9 1.3,-2.4 2.9,-2.5 1.1,3.7 -0.4,7.3 -0.3,10.9 3.5,0.6 6.3,-1.3 9.3,-1.8 -4.6,4 -9.8,6.9 -15.8,9.2 0.8,-2.7 2.3,-4.6 2,-7.7 -5.1,5.7 -10.6,10.2 -16.8,14.3 -2.3,-2.8 -4.4,-5.4 -7,-8.5 0,4.7 0,8.6 0,13.2 -7.9,-6.7 -12.7,-14 -12.2,-24.1 -2.3,0.4 -2.9,2.9 -5.1,2.9 -2,-9.1 -0.3,-17.8 1.9,-26.5 -8.2,8.3 -13.2,17.9 -14.1,29.9 2.4,-0.8 3.6,-2.8 6.2,-3 0,16.5 3.7,31.4 18.6,41.9 0.7,-4.5 -0.8,-8.6 0.1,-12.9 10.1,16.1 15.9,21.8 23.9,23.5 -2.2,-8.2 -1.2,-15.9 4,-23.1 2.9,3.1 5.1,6.5 9,8.8 0,-10.5 3.9,-19.2 8.9,-27.5 -1.1,10.6 0.5,20.6 6.1,29.8 3.6,5.6 7.4,10.9 14.3,12.6 l 0,0 z"
         class="st6"
         inkscape:export-ydpi="90"
         inkscape:export-xdpi="90"
         inkscape:export-filename="/home/fuego/test.png"
         inkscape:connector-curvature="0"
         id="path4268" /><path
         style="fill:#1a3152"
         d="m 73.3,221 c 2.4,1.8 4.7,0 7.1,-0.4 1.1,7.7 4.1,14.6 9.4,20.6 1.5,-2 1.4,-4.1 2.1,-6.6 3.5,4.5 6,8.9 9.6,12.6 12.6,12.8 27.6,21.1 45,25 6.9,1.5 14,2.3 20.8,-0.7 2.7,-1.2 3.4,0.6 4.1,2.4 1.6,4.1 0.9,8.6 1.3,13.5 4.6,-2.9 8.2,-6.1 11.3,-10.1 1.1,-1.4 1.5,-3.3 3.4,-3.9 -1.9,7.1 -5.8,13.2 -9.2,19.5 -0.7,1.4 -2.1,1.6 -3.5,1.8 -12.7,2.8 -23.9,-1 -34.5,-7.6 -1.4,-0.9 -2.7,-1.8 -4.3,-2.8 -0.4,3 1.2,5.6 0.3,8.6 -6,-5.3 -11.7,-10.7 -17.7,-15.7 -18.2,-15.2 -38,-27.4 -61.4,-32.8 -7.3,-1.7 -14.7,-2.6 -23.1,-2.2 4.3,-7.6 9,-14 16,-18.5 0.8,-0.5 2.1,-0.3 3.2,-0.2 6.9,0.8 13.6,-0.2 20.1,-2.5 l 0,0 z"
         class="st5"
         inkscape:export-ydpi="90"
         inkscape:export-xdpi="90"
         inkscape:export-filename="/home/fuego/test.png"
         inkscape:connector-curvature="0"
         id="path4272" /><path
         style="fill:#181d2a"
         d="m 49.3,208 c -3.4,-2.9 -7.9,-3 -12.2,-5 8.4,-9.7 18.5,-14.9 31.3,-14.7 0.3,2.1 -2.1,3.4 -1.8,6.2 7.9,-4.4 12.5,-11.9 19.5,-16.7 0.7,-0.2 1.5,-0.3 1.7,-1.2 l 0,0 c 3.2,-0.5 6,-3 9.7,-2.4 -9.7,11.5 -11.9,15.6 -11.9,21.9 1.5,-1.4 3.2,-2.9 4.9,-4.4 1.7,-1.5 3.5,-3 6.1,-3.8 1.4,18.1 9.5,32.4 22.7,44.6 0.8,-2 0.2,-3.4 0.2,-4.8 0,-1.3 0,-2.7 0,-5.2 5.7,6 10.7,11.2 16.9,14.8 6.2,3.6 12.7,6 20.3,5.6 -0.3,-4.3 -1.5,-8.3 0.9,-12.7 4,6.2 8.1,11.8 13.6,16.7 5.7,-5.6 7.7,-12.6 7.9,-20.3 9.6,5.6 10.6,37.2 -2.3,47.4 -4.2,-12.4 -6,-15.2 -10.9,-16.8 0.2,2.3 2.2,3.7 2.7,6.3 -16.2,-1.4 -31.3,-5.5 -45.3,-13.5 -14.2,-8.1 -24.9,-19.3 -30.7,-34.7 -1.6,0.1 -2.3,1.3 -3.1,2.1 -0.8,0.7 -1.4,1.6 -2.5,2.7 -2.4,-3.9 -3.2,-8 -4.3,-12.3 -5.4,3.1 -11,4.9 -17.1,4.8 -0.2,-1.6 1.8,-2 1.7,-4 -6.1,0.9 -12.1,0.1 -18,-0.6 l 0,0 z"
         class="st9"
         inkscape:export-ydpi="90"
         inkscape:export-xdpi="90"
         inkscape:export-filename="/home/fuego/test.png"
         inkscape:connector-curvature="0"
         id="path4284" /><path
         style="fill:#181d2a"
         d="m 171.2,168.5 c 3.8,-2.1 6.9,-5.3 11,-8.2 -1.2,7.1 -5.1,12.5 -7.5,18.5 -5,8.4 -8.9,17.1 -8.9,27.5 -3.9,-2.2 -6.2,-5.6 -9,-8.8 -5.2,7.2 -6.3,14.8 -4,23.1 -8,-1.7 -13.7,-7.4 -23.9,-23.5 -0.9,4.3 0.6,8.3 -0.1,12.9 -14.9,-10.5 -18.6,-25.3 -18.6,-41.9 -2.5,0.3 -3.8,2.2 -6.2,3 0.9,-12 5.9,-21.6 14.1,-29.9 -2.2,8.8 -3.8,17.5 -1.9,26.5 2.2,-0.1 2.8,-2.6 5.1,-2.9 -0.6,10.1 4.3,17.5 12.2,24.1 0,-4.7 0,-8.5 0,-13.2 2.6,3.2 4.7,5.8 7,8.5 6.2,-4.1 11.7,-8.6 16.8,-14.3 0.4,3.1 -1.2,5 -2,7.7 6.1,-2.2 11.3,-5.2 15.9,-9.1 l 0,0 z"
         class="st9"
         inkscape:export-ydpi="90"
         inkscape:export-xdpi="90"
         inkscape:export-filename="/home/fuego/test.png"
         inkscape:connector-curvature="0"
         id="path4286" /><path
         style="fill:#181d2a"
         d="m 148.2,128.3 c -7.8,2.8 -14.4,7.1 -19.1,14.2 -0.5,-5.6 3.4,-11.4 8.9,-14.4 1.2,-0.6 3.9,0.1 3.4,-2.9 -0.1,-0.4 1.2,-0.3 1.8,-0.1 1.7,0.8 3.5,1.5 5,3.2 l 0,0 z"
         class="st9"
         inkscape:export-ydpi="90"
         inkscape:export-xdpi="90"
         inkscape:export-filename="/home/fuego/test.png"
         inkscape:connector-curvature="0"
         id="path4288" /></g></g></svg>